<?xml version="1.0" encoding="utf-8"?>
<!-- Generator: Adobe Illustrator 16.0.0, SVG Export Plug-In . SVG Version: 6.00 Build 0)  -->
<!DOCTYPE svg PUBLIC "-//W3C//DTD SVG 1.1//EN" "http://www.w3.org/Graphics/SVG/1.1/DTD/svg11.dtd">
<svg version="1.1" id="Layer_1" xmlns="http://www.w3.org/2000/svg" xmlns:xlink="http://www.w3.org/1999/xlink" x="0px" y="0px"
	 width="49.977px" height="50px" viewBox="0 0 49.977 50" enable-background="new 0 0 49.977 50" xml:space="preserve">
<path opacity="0.25" d="M15.399,36.767C10.863,39.861,15.51,50,15.51,50l0,0c0,0,26.01-4.286,30.67-7.467l0,0
	c8.877-6.057-6.486-9.036-6.486-9.036l0,0C39.691,33.498,24.322,30.678,15.399,36.767 M26.086,37.505
	c1.669-1.139,5.79-1.542,9.17-0.903l0,0c3.409,0.644,4.791,2.085,3.122,3.224l0,0c-1.671,1.141-5.761,1.547-9.171,0.903l0,0
	C25.828,40.091,24.408,38.65,26.086,37.505L26.086,37.505z"/>
<path fill="#28A59A" d="M0,18.649c0,9.38,15.547,31.367,15.547,31.367l0,0c0,0,15.727-21.832,15.727-31.471l0,0
	C31.273,0.189,15.547,0,15.547,0l0,0C15.547,0.006,0,0.195,0,18.649 M9.382,15.613c0-3.452,2.814-6.255,6.254-6.255l0,0
	c3.47,0,6.255,2.804,6.255,6.255l0,0c0,3.457-2.785,6.255-6.255,6.255l0,0C12.197,21.868,9.382,19.083,9.382,15.613L9.382,15.613z"
	/>
</svg>
