<?xml version="1.0" encoding="utf-8"?>
<!-- Generator: Adobe Illustrator 16.0.0, SVG Export Plug-In . SVG Version: 6.00 Build 0)  -->
<!DOCTYPE svg PUBLIC "-//W3C//DTD SVG 1.1//EN" "http://www.w3.org/Graphics/SVG/1.1/DTD/svg11.dtd">
<svg version="1.1" id="Layer_1" xmlns="http://www.w3.org/2000/svg" xmlns:xlink="http://www.w3.org/1999/xlink" x="0px" y="0px"
	 width="220.621px" height="528.985px" viewBox="0 0 220.621 528.985" enable-background="new 0 0 220.621 528.985"
	 xml:space="preserve">
<path fill="#FFFFFF" d="M4.561,6.585c0.153,0.162,0.23,0.356,0.23,0.58c0,0.225-0.077,0.414-0.23,0.567
	c-0.162,0.162-0.355,0.243-0.58,0.243c-0.208,0-0.396-0.076-0.567-0.229L0.243,4.588C0.081,4.409,0,4.215,0,4.008
	C0,3.783,0.081,3.594,0.243,3.44L3.44,0.244C3.593,0.081,3.783,0,4.008,0c0.225,0,0.418,0.081,0.58,0.244
	C4.741,0.396,4.817,0.585,4.817,0.81c0,0.224-0.077,0.414-0.229,0.566L1.957,4.008L4.561,6.585z"/>
<path fill="#FFFFFF" d="M46.106,4.008l-2.632-2.632c-0.152-0.152-0.229-0.342-0.229-0.566c0-0.225,0.077-0.414,0.229-0.566
	C43.637,0.081,43.831,0,44.055,0c0.226,0,0.415,0.081,0.568,0.244l3.197,3.197c0.163,0.154,0.243,0.342,0.243,0.568
	c0,0.207-0.081,0.401-0.243,0.58l-3.171,3.159c-0.17,0.153-0.359,0.229-0.567,0.229c-0.225,0-0.417-0.081-0.58-0.243
	c-0.153-0.153-0.23-0.342-0.23-0.567c0-0.224,0.077-0.418,0.23-0.58L46.106,4.008z"/>
<path fill="#FFFFFF" d="M6.531,363.021l-2.334,2.312c-0.134,0.135-0.302,0.203-0.5,0.201c-0.199-0.002-0.366-0.07-0.5-0.207
	c-0.144-0.143-0.213-0.312-0.213-0.514c0.001-0.195,0.073-0.363,0.218-0.502l2.835-2.811c0.135-0.146,0.303-0.213,0.501-0.213
	c0.182,0.002,0.354,0.069,0.512,0.217l2.773,2.812c0.135,0.146,0.201,0.313,0.2,0.5c0,0.199-0.073,0.367-0.218,0.515
	c-0.135,0.133-0.301,0.196-0.5,0.196c-0.197,0-0.368-0.065-0.511-0.202L6.531,363.021z"/>
<path fill="#FFFFFF" d="M34.519,489.405l4.959,5.008c0.287,0.289,0.432,0.65,0.431,1.074c-0.006,0.426-0.153,0.781-0.444,1.07
	c-0.306,0.311-0.669,0.455-1.102,0.455c-0.42,0-0.779-0.154-1.076-0.467l-6.028-6.08c-0.31-0.289-0.456-0.648-0.454-1.072
	c0.002-0.395,0.152-0.764,0.465-1.098l6.029-5.951c0.314-0.287,0.674-0.428,1.073-0.428c0.428,0,0.788,0.156,1.1,0.469
	c0.287,0.291,0.425,0.646,0.425,1.072c0,0.422-0.143,0.787-0.435,1.096L34.519,489.405z"/>
<path fill="#FFFFFF" d="M59.539,484.553c-0.292-0.309-0.437-0.674-0.437-1.096c0-0.426,0.138-0.781,0.425-1.072
	c0.312-0.311,0.673-0.469,1.1-0.469c0.397,0,0.757,0.143,1.072,0.43l6.03,5.949c0.312,0.334,0.464,0.705,0.465,1.098
	c0.001,0.424-0.145,0.783-0.455,1.074l-6.027,6.078c-0.298,0.312-0.657,0.469-1.078,0.469c-0.431,0-0.796-0.146-1.101-0.457
	c-0.292-0.287-0.438-0.645-0.445-1.068c-0.001-0.424,0.145-0.785,0.431-1.074l4.96-5.008L59.539,484.553z"/>
<path fill="#FFFFFF" d="M14.095,494.413l-4.958-5.006l4.942-4.854c0.292-0.309,0.438-0.674,0.438-1.096
	c0-0.428-0.139-0.783-0.427-1.072c-0.312-0.311-0.672-0.469-1.101-0.469c-0.398,0-0.757,0.141-1.07,0.43l-4.654,4.592l-4.655-4.592
	c-0.315-0.289-0.675-0.43-1.073-0.43c-0.427,0-0.787,0.156-1.1,0.469c-0.287,0.289-0.424,0.646-0.424,1.072
	c0,0.422,0.145,0.787,0.435,1.096l4.944,4.854l-4.96,5.006c-0.288,0.289-0.434,0.648-0.432,1.07
	c0.005,0.428,0.152,0.787,0.444,1.074c0.306,0.309,0.67,0.457,1.102,0.457c0.421,0,0.778-0.154,1.077-0.469l4.642-4.682l4.642,4.682
	c0.297,0.312,0.655,0.469,1.077,0.469c0.43,0,0.795-0.148,1.101-0.457c0.292-0.287,0.437-0.646,0.444-1.074
	C14.53,495.063,14.384,494.702,14.095,494.413z"/>
<path fill="#28A59A" d="M68.214,224.332c0,33.842,33.43,61.26,74.771,61.26l0,0c0.945,0,1.772-0.272,2.731-0.272l0,0
	c20.864,22.783,59.343,27.562,59.343,27.562l0,0C190.871,304.834,190.455,286.008,191,271l0,0
	c16.242-11.188,26.889-27.833,26.889-46.667l0,0c0-33.696-33.574-61.114-74.904-61.114l0,0
	C101.644,163.218,68.214,190.636,68.214,224.332 M95.102,224.611c0-18.833,21.278-34.107,47.604-34.107l0,0
	c26.474,0,47.896,15.274,47.896,34.107l0,0c0,18.824-21.422,34.105-47.896,34.105l0,0
	C116.379,258.719,95.102,243.438,95.102,224.611 M0,251.212c0,16.646,10.912,31.104,27.286,39.703l0,0
	c0.134,13.646-1.772,28.65-14.041,35.604l0,0c0,0,39.969-4.91,60.566-28.927l0,0c9.685-1.641,18.278-5.186,25.646-9.961l0,0
	c-9.406-4.504-17.601-10.506-24.422-17.188l0,0c-4.224,1.095-9.138,1.912-14.041,1.912l0,0c-18.84,0-34.108-9.279-34.108-20.744l0,0
	c0-10.231,12.136-18.554,28.098-20.323l0,0c-0.279-2.316-0.812-4.636-0.812-7.094l0,0c0-7.095,1.625-13.775,3.944-20.332l0,0
	C25.793,204.959,0,225.697,0,251.212L0,251.212z"/>
<path fill="#777777" d="M2.255,96.989C0.891,96.989,0,97.908,0,99.105c0,1.169,0.863,2.116,2.199,2.116
	c1.42,0,2.283-0.947,2.283-2.116C4.455,97.908,3.62,96.989,2.255,96.989z M0.111,116.507h4.232v-13.616H0.111V116.507z
	 M15.786,102.585c-2.283,0-3.647,1.309-4.204,2.2h-0.083l-0.014-1.895H7.73v13.611l4.242,0.004v-7.852
	c0-0.39,0.028-0.779,0.139-1.058c0.306-0.779,1.002-1.587,2.172-1.587c1.531,0,2.143,1.198,2.143,2.951v7.546h4.232v-8.047
	C20.659,104.451,18.57,102.585,15.786,102.585z"/>
<path fill="#777777" d="M0,145.74c0,3.384,2.741,6.125,6.125,6.125l0,0c3.376,0,6.117-2.741,6.117-6.125l0,0
	c0-3.384-2.741-6.125-6.117-6.125l0,0C2.741,139.615,0,142.356,0,145.74 M8.881,143.443l1.087,0.98l-4.655,5.145l-1.087-0.98
	l-2.197-1.984l0.98-1.087l2.198,1.983L8.881,143.443z"/>
<path fill="#777777" d="M50,98H36c-1.657,0-3,1.343-3,3v14c0,1.657,1.343,3,3,3h14c1.657,0,3-1.343,3-3v-14
	C53,99.343,51.657,98,50,98z M41.303,108H39v7h-3v-7h-1v-2h1c0,0,0-0.928,0-1.98c0-1.59,1.198-3.05,3.565-3.05
	c0.959,0,1.753,0.092,1.753,0.092l-0.014,2.212c0,0-0.624-0.007-1.413-0.007c-0.854,0-0.892,0.394-0.892,1.046
	c0,0.081,0,0.109,0,0.111c0,0.184,0,0.576,0,1.576h2.415L41.303,108z"/>
<path fill="#777777" d="M10.989,386.5l-2.979,3.025L4.93,386.5H7v-5.961h2v5.961H10.989z M10,391.528H6v0.979h4V391.528z
	 M14.829,393.5H1.13c-0.62,0-1.13-0.51-1.13-1.145v-2.275c0-0.055,0.02-0.104,0.029-0.149c0.01-0.091,0.021-0.181,0.05-0.271
	c0.011-0.021,0.021-0.031,0.021-0.055c0.05-0.146,0.1-0.299,0.2-0.459l2.41-4c0.21-0.354,0.729-0.621,1.17-0.621h1.21L2,390.549
	h11.96l-3.101-6.021h0.95c0.44,0,0.97,0.271,1.2,0.621l2.609,4c0.07,0.107,0.101,0.223,0.15,0.318c0.06,0.092,0.1,0.182,0.13,0.279
	c0.01,0.028,0.01,0.051,0.021,0.08c0.02,0.079,0.05,0.159,0.05,0.25v2.278C15.97,392.991,15.46,393.5,14.829,393.5L14.829,393.5z"/>
<g>
	<path fill="#777777" d="M15.987,423.366c0,0.227-0.09,0.426-0.218,0.594l-5.343-4.092l5.536-4.24
		c0.005,0.16,0.003,0.328-0.007,0.508c-0.01,0.176,0.006,0.277,0.031,0.352L15.987,423.366L15.987,423.366z M7.155,420.118
		l-6.982-5.352c0.148-0.227,0.396-0.369,0.776-0.43h14.016c0.402,0.051,0.654,0.203,0.802,0.439l-6.971,5.34
		C8.343,420.465,7.607,420.465,7.155,420.118z M0.204,423.942C0.085,423.776,0,423.584,0,423.366v-7.73l5.523,4.232L0.204,423.942z
		 M7.155,421.118c0.452,0.346,1.188,0.346,1.641,0l0.979-0.75l5.178,3.965H0.999l5.177-3.965L7.155,421.118z"/>
</g>
<path fill="#777777" d="M0,448.375c0,3,4.971,10.029,4.971,10.029l0,0c0,0,5.029-6.979,5.029-10.062l0,0
	c0-5.869-5.029-5.93-5.029-5.93l0,0C4.971,442.415,0,442.475,0,448.375 M3,447.405c0-1.104,0.9-2,2-2l0,0c1.11,0,2,0.896,2,2l0,0
	c0,1.105-0.89,2-2,2l0,0C3.9,449.405,3,448.514,3,447.405L3,447.405z"/>
<path fill="#FFFFFF" d="M8.812,26.812c-0.481,0-0.875,0.385-0.875,0.868l0,0v4.39c0,0.474,0.394,0.868,0.875,0.868l0,0h4.383
	c0.482,0,0.867-0.394,0.867-0.868l0,0v-4.39c0-0.483-0.385-0.868-0.867-0.868l0,0H8.812z M0.938,26.812
	c-0.481,0-0.875,0.385-0.875,0.868l0,0v4.39c0,0.474,0.394,0.868,0.875,0.868l0,0H5.32c0.482,0,0.867-0.394,0.867-0.868l0,0v-4.39
	c0-0.483-0.385-0.868-0.867-0.868l0,0H0.938z M8.812,34.688c-0.481,0-0.875,0.385-0.875,0.868l0,0v4.382
	c0,0.481,0.394,0.875,0.875,0.875l0,0h4.383c0.482,0,0.867-0.394,0.867-0.875l0,0v-4.382c0-0.483-0.385-0.868-0.867-0.868l0,0H8.812
	z M0.938,34.688c-0.481,0-0.875,0.385-0.875,0.868l0,0v4.382c0,0.481,0.394,0.875,0.875,0.875l0,0H5.32
	c0.482,0,0.867-0.394,0.867-0.875l0,0v-4.382c0-0.483-0.385-0.868-0.867-0.868l0,0H0.938z"/>
<path fill="#1F897C" d="M1.368,60.631l-1.203,1.208c-0.221,0.22-0.221,0.582,0,0.802l0,0l1.795,1.795l-1.79,1.79
	c-0.22,0.227-0.22,0.582,0,0.808l0,0l1.208,1.203c0.22,0.219,0.582,0.219,0.801,0l0,0l1.791-1.79l1.79,1.79
	c0.22,0.219,0.581,0.219,0.802,0l0,0l1.202-1.203c0.225-0.226,0.225-0.581,0-0.808l0,0l-1.79-1.79l1.801-1.795
	c0.22-0.22,0.22-0.582,0-0.802l0,0l-1.203-1.208c-0.113-0.107-0.259-0.164-0.4-0.164l0,0c-0.147,0-0.293,0.057-0.401,0.164l0,0
	l-1.8,1.801L2.17,60.631c-0.107-0.107-0.254-0.164-0.4-0.164l0,0C1.628,60.467,1.48,60.524,1.368,60.631L1.368,60.631z"/>
</svg>
